<?xml version="1.0" standalone="no"?>
<!DOCTYPE svg PUBLIC "-//W3C//DTD SVG 20010904//EN"
 "http://www.w3.org/TR/2001/REC-SVG-20010904/DTD/svg10.dtd">
<svg version="1.0" xmlns="http://www.w3.org/2000/svg"
 width="665.000000pt" height="375.000000pt" viewBox="0 0 665.000000 375.000000"
 preserveAspectRatio="xMidYMid meet">

<g transform="translate(0.000000,375.000000) scale(0.100000,-0.100000)"
fill="#000000" stroke="none">
<path d="M3130 3259 c-337 -70 -639 -302 -797 -613 -29 -57 -66 -166 -87 -260
-47 -199 16 -427 163 -596 l40 -45 -25 90 c-13 50 -24 105 -24 123 0 19 -6 35
-15 38 -24 10 -81 125 -96 195 -21 99 9 244 57 272 9 5 14 25 14 52 0 53 28
132 66 187 28 40 104 98 129 98 7 0 21 24 31 58 34 112 158 201 292 210 59 4
64 6 102 50 83 93 219 123 329 70 l53 -25 60 18 c33 11 85 19 117 19 56 0 152
-27 174 -49 6 -6 18 -11 26 -11 9 0 44 -14 78 -32 47 -24 65 -40 78 -68 14
-30 25 -39 69 -54 66 -23 145 -71 153 -94 4 -9 15 -28 25 -41 10 -13 18 -35
18 -50 0 -19 15 -39 55 -74 60 -52 85 -100 103 -192 13 -63 4 -154 -19 -196
-8 -16 -8 -31 -1 -58 6 -20 14 -71 17 -114 8 -109 13 -117 41 -70 35 57 41 72
57 143 18 76 14 191 -10 295 -30 134 -161 347 -275 450 -223 200 -473 296
-767 294 -92 -1 -167 -7 -231 -20z"/>
<path d="M3115 3141 c-53 -25 -105 -71 -109 -96 -2 -11 3 -32 10 -47 17 -32
18 -48 4 -48 -6 0 -15 11 -20 24 -12 31 -57 41 -148 32 -110 -11 -196 -78
-222 -171 -10 -37 -9 -47 9 -84 23 -45 17 -51 -20 -22 -70 55 -194 -68 -175
-173 4 -20 28 -55 67 -95 59 -61 73 -91 27 -57 -58 42 -99 66 -111 66 -22 0
-54 -42 -65 -88 -11 -47 -3 -95 23 -135 19 -29 15 -33 -16 -17 -17 9 -19 7
-19 -18 0 -57 29 -127 68 -165 44 -43 84 -57 165 -57 52 0 58 2 67 25 17 44
93 116 150 142 58 27 165 36 223 20 27 -7 27 -7 27 37 0 25 4 56 10 71 9 24 7
27 -23 40 -77 32 -225 26 -274 -11 -146 -112 -220 -141 -263 -105 l-25 20 47
1 c48 0 96 28 174 102 l32 30 -24 25 c-28 30 -40 100 -25 144 14 41 14 41 -6
38 -29 -5 -73 10 -73 24 0 9 11 12 34 9 19 -2 52 1 73 8 45 15 153 77 171 98
31 39 0 119 -56 147 -35 18 -36 19 -12 23 46 6 104 -22 123 -59 15 -28 17 -48
11 -111 -7 -93 -1 -118 31 -118 38 0 117 39 146 71 25 28 27 37 31 148 4 97 9
126 28 164 13 26 27 47 30 47 4 0 15 16 26 35 10 19 22 35 26 35 9 0 38 29 38
39 0 15 -51 31 -98 31 -26 0 -65 -9 -87 -19z"/>
<path d="M2808 2607 c-46 -15 -98 -78 -98 -120 0 -32 35 -96 53 -98 7 -1 71
-2 142 -3 104 -1 136 -4 157 -18 25 -16 26 -16 47 12 29 40 53 136 45 183 -6
40 -13 44 -47 25 -12 -6 -59 -26 -104 -44 l-83 -32 -6 39 c-4 24 -15 46 -28
54 -24 17 -29 17 -78 2z"/>
<path d="M3285 2406 c-22 -8 -55 -21 -73 -31 -35 -18 -67 -68 -56 -87 4 -7 3
-8 -4 -4 -7 4 -16 -9 -23 -35 -12 -39 -11 -45 16 -96 20 -38 39 -60 62 -71
l33 -16 1 -160 c1 -89 1 -302 0 -473 l-2 -313 36 0 37 0 -4 473 c-3 259 -3
478 0 485 8 26 38 31 93 17 97 -26 141 -19 164 26 19 35 19 60 0 134 -18 71
-68 124 -142 149 -55 19 -84 19 -138 2z"/>
<path d="M4154 2204 c-79 -57 -159 -78 -270 -72 -58 3 -91 10 -116 25 -31 18
-41 19 -77 10 -32 -9 -43 -17 -47 -37 -3 -14 -8 -32 -10 -41 -3 -9 -22 -29
-44 -44 -37 -26 -44 -27 -132 -24 l-93 4 -3 -452 -2 -453 48 0 c27 0 104 3
170 7 l122 6 0 91 c0 54 5 101 13 116 11 22 19 25 63 24 27 -1 96 -15 154 -32
163 -48 183 -49 230 -18 39 26 46 41 41 94 -1 13 14 61 33 106 24 56 36 99 36
130 0 37 5 51 25 68 13 11 22 25 19 30 -3 4 5 12 18 17 13 5 30 16 38 26 17
21 4 61 -50 155 -56 97 -92 196 -94 257 0 29 -3 52 -6 52 -3 0 -33 -21 -66
-45z"/>
<path d="M2874 2119 c-17 -5 -37 -16 -44 -24 -7 -8 -18 -15 -25 -15 -20 0 -95
-99 -95 -126 0 -19 8 -24 55 -34 30 -6 58 -11 62 -12 5 0 13 -3 18 -8 11 -8
70 -28 106 -35 72 -14 193 -103 205 -151 15 -60 24 -11 24 135 0 139 -2 162
-17 177 -10 10 -16 20 -14 23 2 3 -29 23 -68 43 -76 40 -136 48 -207 27z"/>
<path d="M2466 1907 c13 -60 67 -192 88 -215 39 -44 80 -61 171 -72 146 -18
167 -25 203 -67 44 -51 68 -105 76 -178 4 -33 14 -99 22 -146 15 -84 17 -87
46 -93 17 -3 43 -6 59 -6 l29 0 0 138 c-1 245 -36 409 -100 467 -25 23 -171
95 -191 95 -36 0 -176 50 -193 69 -14 16 -27 18 -69 14 -32 -3 -71 1 -100 10
l-48 15 7 -31z m339 -153 c162 -25 244 -106 253 -252 4 -54 2 -73 -7 -68 -6 4
-11 18 -11 32 0 44 -39 137 -71 170 -37 38 -116 69 -219 85 -78 12 -132 35
-111 48 12 8 28 7 166 -15z"/>
</g>
</svg>
